 <svg
              width="35"
              height="28"
              viewBox="0 0 45 38"
              fill="none"
              xmlns="http://www.w3.org/2000/svg"
              className="svgs"
            >
              <path
                fill-rule="evenodd"
                clip-rule="evenodd"
                d="M19.6855 34.1046C15.7352 31.5006 13.1836 27.3773 13.1836 22.7375C13.1836 14.8649 20.5297 8.47915 29.5903 8.47915C32.4845 8.47915 35.2038 9.13071 37.5646 10.2742C34.55 4.3724 27.792 0.259277 19.9394 0.259277C9.27987 0.259277 0.63739 7.8384 0.63739 17.1824C0.63739 21.4373 2.42765 25.3272 5.39172 28.3032C5.15647 30.7571 4.38319 33.4527 3.53028 35.475C3.33726 35.9223 3.71003 36.4287 4.19017 36.3478C9.63334 35.4557 12.8664 34.0813 14.2755 33.3645C16.0395 33.8381 17.8587 34.0876 19.6855 34.1046Z"
                fill="#fff"
              />
              <path
                d="M29.5904 35.6401C21.3292 35.6401 14.6313 29.8179 14.6313 22.6398C14.6313 15.4618 21.3292 9.63959 29.5904 9.63959C37.8515 9.63959 44.5494 15.4618 44.5494 22.6398C44.5494 25.9085 43.162 28.8967 40.8648 31.1829C41.0471 33.0679 41.6464 35.1387 42.3074 36.6922C42.457 37.0358 42.1681 37.4249 41.796 37.3626C37.5776 36.6773 35.0719 35.6215 33.9799 35.0709C32.5495 35.4516 31.0723 35.6438 29.5904 35.6401Z"
                fill="#fff"
              />
</svg>